<svg xmlns:dc="http://purl.org/dc/elements/1.1/" xmlns:cc="http://creativecommons.org/ns#" xmlns:rdf="http://www.w3.org/1999/02/22-rdf-syntax-ns#" xmlns:svg="http://www.w3.org/2000/svg" xmlns="http://www.w3.org/2000/svg" version="1.1" width="64" height="64" viewBox="0 0 64 64">
<g transform="translate(0,-988.36218)">
<path d="m 43.398026,1008.4725 c -2.03625,-2.065 -4.5025,-3.1 -7.4025,-3.1 -2.9,0 -5.36625,1.035 -7.4025,3.1 -1.1325,1.1675 -1.9475,2.4513 -2.44625,3.8488 -0.4,1.1325 -0.6,2.3525 -0.6,3.6512 0,1.3 0.2,2.535 0.6,3.7013 0.0975,0.2637 0.215,0.5475 0.34625,0.85 l -8.295,8.3987 c -1.10375,1.635 -0.88375,3.335 0.64875,5.1025 0.99625,1.0988 2.86625,1.5138 5.60125,1.25 l 1.89875,0 0,-4.405 4.24875,0 -0.40125,-4.345 6.00125,0.049 c 2.7975,-0.069 5.2,-1.1037 7.2025,-3.1012 2.065,-2.0988 3.095,-4.5988 3.095,-7.5 0,-2.9338 -1.03,-5.4338 -3.095,-7.5 m -11.60125,7.5 c 0,-1.1663 0.415,-2.1675 1.25,-3.0025 0.8,-0.83 1.78125,-1.25 2.94875,-1.25 1.1675,0 2.14875,0.42 2.94875,1.25 0.835,0.835 1.25,1.8362 1.25,3.0025 0,1.1675 -0.415,2.1687 -1.25,2.9987 -0.8,0.8013 -1.78125,1.2013 -2.94875,1.2013 -1.1675,0 -2.14875,-0.4 -2.94875,-1.2013 -0.835,-0.83 -1.25,-1.8312 -1.25,-2.9987" style="fill:#dd4e54;fill-opacity:1;fill-rule:nonzero;stroke:none" />
</g>
</svg>
