<svg xmlns:dc="http://purl.org/dc/elements/1.1/" xmlns:cc="http://creativecommons.org/ns#" xmlns:rdf="http://www.w3.org/1999/02/22-rdf-syntax-ns#" xmlns:svg="http://www.w3.org/2000/svg" xmlns="http://www.w3.org/2000/svg" version="1.1" width="64" height="64" viewBox="0 0 64 64">
<g transform="translate(0,-988.36218)">
<path d="m 43.398026,1008.4725 c -4.299191,-4.8065 -13.181079,-3.8254 -16.282938,1.8485 -1.516253,2.4844 -1.944056,5.5723 -1.29188,8.397 1.290383,1.7876 -0.798234,3.5216 -2.049856,4.6041 -2.006588,1.926 -3.96479,3.9044 -5.820874,5.9765 -1.497402,2.7639 1.338949,6.4958 4.388683,5.9591 1.251301,0.2333 2.837849,0.4242 3.804495,-0.5882 0.460412,-1.3367 -0.609204,-3.656 1.623782,-3.9193 0.997013,0.03 3.156992,0.7497 2.76017,-1.0893 -0.197924,-1.0278 -0.2113,-2.0929 -0.335332,-3.1356 3.56812,-0.1092 7.410045,0.6341 10.697171,-1.1559 5.414104,-2.7136 7.449556,-10.5664 3.742596,-15.4433 -0.364901,-0.5219 -0.778663,-1.0097 -1.236017,-1.4529 m -11.60125,7.5 c -0.273281,-3.2932 4.333359,-5.6316 6.789872,-3.3768 2.726289,1.9244 1.738708,7.0436 -1.677202,7.5127 -2.450021,0.5354 -5.337533,-1.504 -5.11267,-4.1359 z"
 style="fill:#dd4e54;fill-opacity:1;fill-rule:nonzero;stroke:none" />
</g>
</svg>
